<?xml version="1.0" standalone="no"?>
<!DOCTYPE svg PUBLIC "-//W3C//DTD SVG 20010904//EN"
 "http://www.w3.org/TR/2001/REC-SVG-20010904/DTD/svg10.dtd">
<svg version="1.0" xmlns="http://www.w3.org/2000/svg"
 width="131.000000pt" height="139.000000pt" viewBox="0 0 131.000000 139.000000"
 preserveAspectRatio="xMidYMid meet">
<metadata>
Created by potrace 1.13, written by Peter Selinger 2001-2015
</metadata>
<g transform="translate(0.000000,139.000000) scale(0.100000,-0.100000)"
fill="#000000" stroke="none">
<path d="M720 985 c0 -23 -3 -25 -50 -25 -47 0 -50 -2 -50 -25 0 -23 -3 -25
-50 -25 -47 0 -50 -2 -50 -25 0 -20 -5 -25 -25 -25 -23 0 -25 -3 -25 -50 0
-47 -2 -50 -25 -50 -24 0 -25 -2 -25 -75 0 -73 -1 -75 -25 -75 l-25 0 0 -125
0 -125 25 0 c20 0 25 -5 25 -25 0 -20 5 -25 25 -25 21 0 25 -5 25 -31 0 -25
-3 -30 -22 -27 -16 2 -23 -3 -28 -22 -4 -16 -13 -25 -25 -25 -14 0 -21 -8 -23
-27 -3 -22 -9 -28 -28 -28 -23 0 -24 -2 -24 -75 l0 -75 370 0 370 0 0 25 c0
20 -5 25 -25 25 -25 0 -25 1 -25 80 0 79 0 80 25 80 21 0 25 -5 25 -29 0 -22
4 -28 18 -26 9 2 20 4 25 4 4 1 7 13 7 27 0 21 4 25 23 22 16 -2 23 -11 25
-31 3 -23 0 -27 -22 -27 -21 0 -26 -5 -26 -24 0 -18 5 -23 23 -22 17 1 23 -5
25 -26 3 -24 0 -28 -22 -28 -21 0 -26 -5 -26 -25 0 -23 3 -25 50 -25 48 0 50
1 50 28 0 24 4 28 23 27 16 -1 23 -9 25 -29 3 -21 8 -27 25 -24 20 3 22 10 25
76 3 71 3 72 -23 72 -23 0 -25 3 -25 50 0 54 -4 56 -77 50 -19 -1 -23 4 -23
29 0 26 4 31 25 31 23 0 25 3 25 50 0 47 2 50 25 50 l25 0 0 300 0 300 -50 0
-50 0 0 -100 0 -100 -25 0 c-23 0 -25 3 -25 50 l0 50 -50 0 c-47 0 -50 2 -50
25 0 23 -3 25 -50 25 -47 0 -50 2 -50 25 0 25 0 25 -95 25 -95 0 -95 0 -95
-25z m190 -50 c0 -20 5 -25 25 -25 20 0 25 -5 25 -25 0 -20 5 -25 25 -25 20 0
25 -5 25 -25 0 -20 5 -25 25 -25 20 0 25 -5 25 -25 0 -20 -5 -25 -25 -25 -20
0 -25 -5 -25 -25 0 -20 5 -25 25 -25 20 0 25 -5 25 -25 0 -20 -5 -25 -25 -25
-20 0 -25 5 -25 25 0 20 -5 25 -25 25 -20 0 -25 -5 -25 -25 0 -20 -5 -25 -25
-25 -20 0 -25 5 -25 25 0 20 -5 25 -25 25 -20 0 -25 -5 -25 -25 0 -20 -5 -25
-25 -25 -20 0 -25 5 -25 25 0 20 5 25 25 25 20 0 25 5 25 25 0 23 -3 25 -50
25 l-50 0 0 50 c0 47 2 50 25 50 20 0 25 5 25 25 0 20 5 25 25 25 20 0 25 5
25 25 0 20 5 25 25 25 20 0 25 -5 25 -25z m50 -350 c0 -20 5 -25 25 -25 24 0
25 -2 25 -75 0 -73 -1 -75 -25 -75 -20 0 -25 -5 -25 -25 0 -20 -5 -25 -25 -25
-21 0 -25 -5 -25 -28 l0 -27 -195 -1 -195 -2 0 29 c0 24 -4 29 -25 29 -20 0
-25 5 -25 25 0 20 -5 25 -25 25 -24 0 -25 2 -25 75 0 73 1 75 25 75 20 0 25 5
25 25 l0 25 245 0 245 0 0 -25z m-192 -427 c2 -27 7 -48 13 -48 5 0 12 0 17 0
4 0 9 21 12 46 4 39 9 48 27 50 17 3 22 -2 25 -24 2 -21 8 -27 26 -26 18 1 22
-4 22 -27 0 -24 -4 -29 -25 -29 -20 0 -25 -5 -25 -25 0 -24 -2 -25 -70 -25
l-70 0 0 50 c0 47 -2 50 -25 50 -23 0 -25 -3 -25 -50 0 -47 -2 -50 -25 -50
-20 0 -25 5 -25 25 0 20 -5 25 -25 25 -21 0 -25 5 -25 30 0 25 4 29 23 27 17
-2 23 4 25 26 l3 28 72 -3 72 -3 3 -47z"/>
<path d="M520 535 c0 -20 -5 -25 -25 -25 -23 0 -25 -3 -25 -50 0 -47 2 -50 25
-50 20 0 25 -5 25 -25 l0 -25 195 0 195 0 0 25 c0 20 5 25 25 25 23 0 25 3 25
50 0 47 -2 50 -25 50 -20 0 -25 5 -25 25 l0 25 -195 0 -195 0 0 -25z"/>
</g>
</svg>
